<svg width="1247" height="1188" viewBox="0 0 1247 1188" fill="none" xmlns="http://www.w3.org/2000/svg">
<path d="M457.5 415.735C497.59 298.858 489.293 310.045 575 328.735C460.775 544.65 504.517 620.117 415.5 838C723.905 560.624 1051 143.001 1099 71.5007C1147 -7.62939e-05 1246.5 0 1246.5 0C1246.5 0 846 618 575 867.5C820.976 776.884 952.565 743.285 1176.14 713C1161.84 789.498 1139.83 791.426 1046.4 805.824C668.515 883.459 475.5 906.5 97.9003 1187.32L0 1116C418.401 886.661 417.41 532.613 457.5 415.735Z" fill="white"/>
<path d="M781.596 377.595C701.576 356.154 654.089 273.903 675.53 193.883L682 169.735L706.149 176.206C786.169 197.647 833.656 279.898 812.215 359.918L805.744 384.066L781.596 377.595Z" fill="white"/>
<path d="M160.262 928.595C80.242 907.154 32.7546 824.903 54.1959 744.884L60.6664 720.735L84.8145 727.206C164.834 748.647 212.322 830.898 190.881 910.918L184.41 935.066L160.262 928.595Z" fill="white"/>
<path d="M986 678.139C944.579 606.395 969.16 514.657 1040.9 473.235L1062.55 460.735L1075.05 482.386C1116.48 554.13 1091.89 645.868 1020.15 687.29L998.5 699.79L986 678.139Z" fill="white"/>
</svg>
