<svg width="2000" height="2000" viewBox="0 0 2000 2000" fill="none" xmlns="http://www.w3.org/2000/svg">
<rect width="2000" height="2000" fill="#262D38"/>
<rect x="3" y="3" width="1994" height="1994" rx="97" fill="url(#paint0_linear_144_4)" fill-opacity="0.2" stroke="white" stroke-width="6"/>
<path d="M834.5 821.735C874.59 704.858 866.293 716.045 952 734.735C837.775 950.65 881.517 1026.12 792.5 1244C1100.91 966.624 1428 549.001 1476 477.501C1524 406 1623.5 406 1623.5 406C1623.5 406 1223 1024 952 1273.5C1197.98 1182.88 1329.57 1149.28 1553.14 1119C1538.84 1195.5 1516.83 1197.43 1423.4 1211.82C1045.52 1289.46 852.5 1312.5 474.9 1593.32L377 1522C795.401 1292.66 794.41 938.613 834.5 821.735Z" fill="white"/>
<path d="M1158.6 783.595C1078.58 762.154 1031.09 679.903 1052.53 599.883L1059 575.735L1083.15 582.206C1163.17 603.647 1210.66 685.898 1189.21 765.918L1182.74 790.066L1158.6 783.595Z" fill="white"/>
<path d="M537.262 1334.6C457.242 1313.15 409.755 1230.9 431.196 1150.88L437.666 1126.74L461.815 1133.21C541.834 1154.65 589.322 1236.9 567.881 1316.92L561.41 1341.07L537.262 1334.6Z" fill="white"/>
<path d="M1363 1084.14C1321.58 1012.4 1346.16 920.657 1417.9 879.235L1439.55 866.735L1452.05 888.386C1493.48 960.13 1468.89 1051.87 1397.15 1093.29L1375.5 1105.79L1363 1084.14Z" fill="white"/>
<defs>
<linearGradient id="paint0_linear_144_4" x1="1000" y1="0" x2="1000" y2="2000" gradientUnits="userSpaceOnUse">
<stop/>
<stop offset="1"/>
</linearGradient>
</defs>
</svg>
